<?xml version="1.0" encoding="utf-8"?>
<!-- Generator: Adobe Illustrator 19.0.1, SVG Export Plug-In . SVG Version: 6.00 Build 0)  -->
<svg version="1.1" id="Layer_1" xmlns="http://www.w3.org/2000/svg" xmlns:xlink="http://www.w3.org/1999/xlink" x="0px" y="0px"
	 viewBox="0 0 422 137" style="enable-background:new 0 0 422 137;" xml:space="preserve">
<style type="text/css">
	.st0{fill-rule:evenodd;clip-rule:evenodd;fill:#FFFFFF;}
</style>
<g>
	<path class="st0" d="M9.7,135c-5.7,0-7.6-0.2-7.7-5L43.8,14.2C48.5,6.2,53.1,2,57,2h308c4.8,0,11.7,5.6,15.2,12.2L420,129.8
		c-0.1,4.1-1.5,4.5-5.8,4.5l-2.2,0L9.7,135z"/>
	<path d="M365,4c3.6,0,10,4.7,13.3,11L418,130.1c-0.1,1.4-0.4,1.8-0.4,1.8c-0.2,0.1-0.8,0.4-3.4,0.4c-0.3,0-0.7,0-1,0
		c-0.4,0-0.8,0-1.2,0L10,133H9.7c-1.8,0-4.1,0-5-0.5c-0.5-0.3-0.6-1.4-0.7-2.2L45.6,15.1C49.8,8,53.9,4,57,4H365 M365,0H57
		c-5.5,0-10.7,6-15,13.4L0,129.7c0,7.2,4.3,7.3,9.7,7.3c0.1,0,0.2,0,0.3,0l402-0.7c0.7,0,1.5,0,2.2,0c4.5,0,7.8-0.4,7.8-6.8
		L382,13.4C378.2,6,370.5,0,365,0L365,0z"/>
</g>
</svg>
