<?xml version="1.0" encoding="utf-8"?>
<svg version="1.1" id="Layer_1" 
	 xmlns="http://www.w3.org/2000/svg" xmlns:xlink="http://www.w3.org/1999/xlink" x="0px" y="0px" viewBox="0 0 422 115"
	 style="enable-background:new 0 0 422 115;" xml:space="preserve">
<style type="text/css">
	.st0{fill-rule:evenodd;clip-rule:evenodd;fill:#FFFFFF;}
</style>
	<g>
		<g>
			<path class="st0" d="M10.2,113.5c-5.9,0-7.6-0.4-7.7-3.7l41.8-97C49,5.9,53.5,2.5,57.5,2.5h308c4.8,0,11.8,4.6,15.2,10.1
				l39.8,96.9c-0.1,2.8-1.1,3.3-5.8,3.3l-2.2,0l-402,0.6H10.2z"/>
			<path d="M365.5,4.5c3.7,0,10.1,3.9,13.4,9.1l39.5,96.3c0,0.4-0.1,0.6-0.1,0.7c-0.4,0.2-1.6,0.3-3.7,0.3c-0.3,0-0.7,0-1,0
				c-0.4,0-0.8,0-1.1,0l-402,0.6h-0.3c-2,0-4.2,0-5.2-0.4c-0.1-0.1-0.3-0.1-0.4-0.9L46,13.7c4.3-6,8.2-9.2,11.5-9.2H365.5
				 M365.5,0.5h-308c-5.5,0-10.7,5-15,11.2l-42,97.6c0,6.1,4.3,6.1,9.7,6.1c0.1,0,0.2,0,0.3,0l402-0.6c0.7,0,1.5,0,2.2,0
				c4.5,0,7.8-0.4,7.8-5.7l-40-97.4C378.7,5.5,371,0.5,365.5,0.5L365.5,0.5z"/>
		</g>
	</g>
</svg>
